<?xml version="1.0" encoding="UTF-8"?>
<svg width="48" height="32" viewBox="0 0 48 32" fill="none" xmlns="http://www.w3.org/2000/svg">
  <rect width="48" height="32" rx="4" fill="#ffffff"/>
  <path d="M19.5 19.6L20 16.8C20 16.9 19.8 17.4 19.2 17.4H17.4L18.2 12.6C18.2 12.5 18.3 12.4 18.4 12.4H22C23.1 12.4 23.8 12.6 24.2 13C24.4 13.2 24.5 13.4 24.6 13.6C24.7 13.8 24.7 14.1 24.7 14.4L24.4 16.2L24.3 16.4C24.3 16.4 24.1 16.1 23.6 15.9C23.1 15.7 22.5 15.6 21.7 15.6H21.1C20.9 15.6 20.7 15.8 20.7 16L20.2 19.2C20.2 19.3 20.1 19.4 20 19.5C20 19.6 19.9 19.6 19.8 19.6H19.5Z" fill="#253B80"/>
  <path d="M29.7 14.4C29.7 14.1 29.7 13.8 29.6 13.6C29.5 13.4 29.4 13.2 29.2 13C28.8 12.6 28.1 12.4 27 12.4H23.4C23.3 12.4 23.2 12.5 23.2 12.6L22.4 17.4H24.2C24.8 17.4 25 16.9 25 16.8L24.5 19.6H24.8C24.9 19.6 25 19.6 25 19.5C25.1 19.4 25.2 19.3 25.2 19.2L25.7 16C25.7 15.8 25.9 15.6 26.1 15.6H26.7C27.5 15.6 28.1 15.7 28.6 15.9C29.1 16.1 29.3 16.4 29.3 16.4L29.4 16.2L29.7 14.4Z" fill="#253B80"/>
  <path d="M24.6 13.6C24.5 13.4 24.4 13.2 24.2 13C23.8 12.6 23.1 12.4 22 12.4H18.4C18.3 12.4 18.2 12.5 18.2 12.6L17.4 17.4H19.2C19.8 17.4 20 16.9 20 16.8L19.5 19.6H19.8C19.9 19.6 20 19.6 20 19.5C20.1 19.4 20.2 19.3 20.2 19.2L20.7 16C20.7 15.8 20.9 15.6 21.1 15.6H21.7C22.5 15.6 23.1 15.7 23.6 15.9C24.1 16.1 24.3 16.4 24.3 16.4L24.4 16.2L24.7 14.4C24.7 14.1 24.7 13.8 24.6 13.6Z" fill="#179BD7"/>
  <path d="M29.6 13.6C29.5 13.4 29.4 13.2 29.2 13C28.8 12.6 28.1 12.4 27 12.4H23.4C23.3 12.4 23.2 12.5 23.2 12.6L22.4 17.4H24.2C24.8 17.4 25 16.9 25 16.8L24.5 19.6H24.8C24.9 19.6 25 19.6 25 19.5C25.1 19.4 25.2 19.3 25.2 19.2L25.7 16C25.7 15.8 25.9 15.6 26.1 15.6H26.7C27.5 15.6 28.1 15.7 28.6 15.9C29.1 16.1 29.3 16.4 29.3 16.4L29.4 16.2L29.7 14.4C29.7 14.1 29.7 13.8 29.6 13.6Z" fill="#179BD7"/>
</svg> 