<?xml version="1.0" encoding="UTF-8"?>
<svg width="48" height="32" viewBox="0 0 48 32" fill="none" xmlns="http://www.w3.org/2000/svg">
  <rect width="48" height="32" rx="4" fill="#1434CB"/>
  <path d="M18.7 21.1H15.9L17.7 11H20.5L18.7 21.1Z" fill="white"/>
  <path d="M28.5 11.3C27.9 11.1 26.9 10.9 25.7 10.9C23 10.9 21 12.3 20.9 14.2C20.8 15.6 22.2 16.4 23.3 16.9C24.4 17.4 24.8 17.7 24.8 18.2C24.8 18.9 23.9 19.2 23.1 19.2C22 19.2 21.4 19.1 20.5 18.7L20.1 18.5L19.7 20.9C20.4 21.2 21.7 21.4 23 21.4C25.9 21.4 27.8 20 27.9 18C28 16.9 27.3 16.1 25.7 15.4C24.7 14.9 24.1 14.6 24.1 14.1C24.1 13.6 24.7 13.1 26 13.1C27.1 13.1 27.9 13.3 28.5 13.5L28.8 13.6L29.2 11.4L28.5 11.3Z" fill="white"/>
  <path d="M33.7 11H31.6C30.9 11 30.4 11.2 30.1 11.9L26.3 21.1H29.2L29.8 19.4L33 19.4L33.3 21.1H35.9L33.7 11ZM30.5 17.5L31.7 14.1L32.4 17.5H30.5Z" fill="white"/>
  <path d="M14.7 11L12 18.1L11.7 16.8C11.1 15 9.39999 13 7.49999 12L10 21.1H13L17.6 11H14.7Z" fill="white"/>
  <path d="M9.19999 11H4.79999L4.69999 11.2C8.09999 12 10.4 14.2 11.3 16.8L10.4 11.9C10.2 11.2 9.79999 11 9.19999 11Z" fill="#FAA61A"/>
</svg> 