<?xml version="1.0" encoding="UTF-8"?>
<svg width="32" height="32" viewBox="0 0 32 32" fill="none" xmlns="http://www.w3.org/2000/svg">
  <!-- Background with soft gradient -->
  <rect width="32" height="32" rx="8" fill="url(#backgroundGradient)" />
  
  <!-- Shopping Bag with shadow -->
  <g filter="url(#shadow)">
    <!-- Bag body -->
    <path d="M8 11C8 10.4477 8.44772 10 9 10H23C23.5523 10 24 10.4477 24 11V23C24 24.1046 23.1046 25 22 25H10C8.89543 25 8 24.1046 8 23V11Z" fill="white"/>
    
    <!-- Bag handles -->
    <path d="M12 10V8C12 6.34315 13.3431 5 15 5H17C18.6569 5 20 6.34315 20 8V10" stroke="white" stroke-width="2" stroke-linecap="round"/>
    
    <!-- Decorative line -->
    <path d="M11 14H21" stroke="url(#lineGradient)" stroke-width="1.5" stroke-linecap="round"/>
  </g>
  
  <!-- Globe element -->
  <circle cx="16" cy="18" r="3" stroke="url(#lineGradient)" stroke-width="1.5" fill="none"/>
  <path d="M14 18H18M16 16V20" stroke="url(#lineGradient)" stroke-width="1.5" stroke-linecap="round"/>
  
  <!-- Definitions -->
  <defs>
    <!-- Background gradient -->
    <linearGradient id="backgroundGradient" x1="0" y1="0" x2="32" y2="32" gradientUnits="userSpaceOnUse">
      <stop offset="0%" stop-color="#4F46E5"/>
      <stop offset="50%" stop-color="#6366F1"/>
      <stop offset="100%" stop-color="#9333EA"/>
    </linearGradient>
    
    <!-- Line gradient -->
    <linearGradient id="lineGradient" x1="11" y1="14" x2="21" y2="14" gradientUnits="userSpaceOnUse">
      <stop stop-color="#9333EA"/>
      <stop offset="1" stop-color="#4F46E5"/>
    </linearGradient>
    
    <!-- Shadow filter -->
    <filter id="shadow" x="6" y="4" width="20" height="23" filterUnits="userSpaceOnUse" color-interpolation-filters="sRGB">
      <feFlood flood-opacity="0" result="BackgroundImageFix"/>
      <feColorMatrix in="SourceAlpha" type="matrix" values="0 0 0 0 0 0 0 0 0 0 0 0 0 0 0 0 0 0 127 0"/>
      <feOffset dy="1"/>
      <feGaussianBlur stdDeviation="1"/>
      <feColorMatrix type="matrix" values="0 0 0 0 0 0 0 0 0 0 0 0 0 0 0 0 0 0 0.15 0"/>
      <feBlend mode="normal" in2="BackgroundImageFix" result="effect1_dropShadow"/>
      <feBlend mode="normal" in="SourceGraphic" in2="effect1_dropShadow" result="shape"/>
    </filter>
  </defs>
</svg> 